<svg xmlns="http://www.w3.org/2000/svg" viewBox="0 0 36 30.32"><defs><style>.cls-1,.cls-2{fill:#243858;}.cls-2{opacity:0.5;}</style></defs><title>Asset 17</title><g id="Layer_2" data-name="Layer 2"><g id="N700"><polygon class="cls-1" points="18 17.05 0 8.53 0 21.32 18 30.32 18 17.05"/><polygon class="cls-2" points="36 21.32 18 30.32 18 17.05 36 8.53 36 21.32"/><path class="cls-1" d="M18,0,0,8.53l18,8.53L36,8.53ZM9.47,10c-2.09,0-3.79-.71-3.79-1.58s1.7-1.58,3.79-1.58,3.79.71,3.79,1.58S11.57,10,9.47,10ZM18,13.89c-2.09,0-3.79-.71-3.79-1.58s1.7-1.58,3.79-1.58,3.79.71,3.79,1.58S20.09,13.89,18,13.89Zm0-7.5c-2.09,0-3.79-.71-3.79-1.58S15.91,3.24,18,3.24s3.79.71,3.79,1.58S20.09,6.39,18,6.39ZM26.53,10c-2.09,0-3.79-.71-3.79-1.58s1.7-1.58,3.79-1.58,3.79.71,3.79,1.58S28.62,10,26.53,10Z"/></g></g></svg>