<svg xmlns="http://www.w3.org/2000/svg" viewBox="0 0 30.66 36"><defs><style>.cls-1,.cls-2{fill:#243858;}.cls-2{opacity:0.5;}</style></defs><title>Asset 8</title><g id="Layer_2" data-name="Layer 2"><g id="N700"><path class="cls-1" d="M6.25.93A5.11,5.11,0,1,0,4,10.89v15a5.11,5.11,0,1,0,2.27,0v-15a5.11,5.11,0,0,0,0-10ZM5.11,28a2.84,2.84,0,1,1-2.84,2.84A2.84,2.84,0,0,1,5.11,28Zm0-25A2.84,2.84,0,1,1,2.27,5.91,2.84,2.84,0,0,1,5.11,3.07ZM21.24,1.61,19.64,0,13.72,5.91l5.91,5.91,1.61-1.61L18.07,7h3.5a2.84,2.84,0,0,1,2.84,2.84v16a5.11,5.11,0,1,0,2.27,0v-16a5.12,5.12,0,0,0-5.11-5.11h-3.5ZM25.55,28a2.84,2.84,0,1,1-2.84,2.84A2.84,2.84,0,0,1,25.55,28Z"/><circle class="cls-2" cx="25.55" cy="30.89" r="2.84"/><circle class="cls-2" cx="5.11" cy="30.89" r="2.84"/><circle class="cls-2" cx="5.11" cy="5.91" r="2.84"/></g></g></svg>