<svg xmlns="http://www.w3.org/2000/svg" viewBox="0 0 36.04 27.5"><defs><style>.cls-1{fill:#243858;}.cls-2{opacity:0.5;}</style></defs><title>Asset 12</title><g id="Layer_2" data-name="Layer 2"><g id="N700"><path class="cls-1" d="M26.89,10.2a9,9,0,0,1-9,7.41h0a7.86,7.86,0,0,0-5.56,2.3L10,22.3v-4.7H9.07a9,9,0,0,1-9-7.41A8.83,8.83,0,0,1,8.8,0H18.2A8.83,8.83,0,0,1,26.89,10.2Z"/><g class="cls-2"><path class="cls-1" d="M18.11,19.78a6,6,0,0,0,6,4.57h0a5.16,5.16,0,0,1,3.65,1.51l1.63,1.63V24.36h.56A6,6,0,0,0,36,19.25a5.91,5.91,0,0,0-5.84-6.69H23.86A5.91,5.91,0,0,0,18.11,19.78Z"/></g></g></g></svg>