<svg xmlns="http://www.w3.org/2000/svg" viewBox="0 0 36 29.17"><defs><style>.cls-1,.cls-2{fill:#243858;}.cls-2{opacity:0.5;}</style></defs><title>Asset 18</title><g id="Layer_2" data-name="Layer 2"><g id="N700"><path class="cls-1" d="M34.43,0H1.57A1.57,1.57,0,0,0,0,1.57V21.91a1.57,1.57,0,0,0,1.57,1.57H34.43A1.57,1.57,0,0,0,36,21.91V1.57A1.57,1.57,0,0,0,34.43,0ZM32.87,20.35H3.13V3.13H32.87Z"/><path class="cls-1" d="M25.83,29.17H10.17a1,1,0,0,1,0-2H25.83a1,1,0,0,1,0,2Z"/><rect class="cls-2" x="15.65" y="23.48" width="4.7" height="4.7"/><rect class="cls-2" x="3.13" y="3.13" width="29.74" height="17.22"/></g></g></svg>