<svg xmlns="http://www.w3.org/2000/svg" viewBox="0 0 31.59 27.2"><defs><style>.cls-1,.cls-2{fill:#243858;}.cls-2{opacity:0.5;}</style></defs><title>Asset 5</title><g id="Layer_2" data-name="Layer 2"><g id="N700"><rect class="cls-1" width="26.32" height="7.02" rx="0.88" ry="0.88"/><rect class="cls-1" y="20.18" width="26.32" height="7.02" rx="0.88" ry="0.88"/><path class="cls-2" d="M23.16,12.72h3.16V11a.88.88,0,0,0-.88-.88H.88A.88.88,0,0,0,0,11v5.26a.88.88,0,0,0,.88.88h17.9A4.39,4.39,0,0,1,23.16,12.72Z"/><path class="cls-2" d="M20.53,17.11h4.92a.88.88,0,0,0,.88-.88V14.48H23.16A2.64,2.64,0,0,0,20.53,17.11Z"/><path class="cls-1" d="M29,10.81A.88.88,0,1,0,27.71,12l.67.72H23.16a4.39,4.39,0,0,0-4.39,4.39h1.75a2.64,2.64,0,0,1,2.63-2.63h5.22l-.67.72A.88.88,0,0,0,29,16.39l2.58-2.79Z"/></g></g></svg>