<svg xmlns="http://www.w3.org/2000/svg" viewBox="0 0 29.22 36"><defs><style>.cls-1,.cls-2{fill:#243858;}.cls-1{opacity:0.5;}</style></defs><title>Asset 15</title><g id="Layer_2" data-name="Layer 2"><g id="N700"><polygon class="cls-1" points="24.22 24 24.22 19 16 19 16 36 29.22 36 29.22 24 24.22 24"/><polygon class="cls-1" points="24.22 5 24.22 0 16 0 16 17 29.22 17 29.22 5 24.22 5"/><rect class="cls-2" x="8.18" y="26" width="2.49" height="2"/><rect class="cls-2" x="4.03" y="26" width="2.49" height="2"/><rect class="cls-2" x="12.33" y="26" width="2.49" height="2"/><rect class="cls-2" x="8.18" y="8" width="2.49" height="2"/><rect class="cls-2" x="4.03" y="8" width="2.49" height="2"/><rect class="cls-2" x="12.33" y="8" width="2.49" height="2"/><path class="cls-2" d="M2,25.63H0V27a1,1,0,0,0,1,1H2.38V26H2Z"/><rect class="cls-2" y="3.17" width="2" height="2.69"/><rect class="cls-2" y="21.13" width="2" height="2.69"/><rect class="cls-2" y="16.64" width="2" height="2.69"/><rect class="cls-2" y="12.15" width="2" height="2.69"/><rect class="cls-2" y="7.66" width="2" height="2.69"/><rect class="cls-2" width="2" height="1.38"/><polygon class="cls-2" points="24.22 19 24.22 24 29.22 24 24.22 19"/><polygon class="cls-2" points="24.22 0 24.22 5 29.22 5 24.22 0"/></g></g></svg>