<svg xmlns="http://www.w3.org/2000/svg" viewBox="0 0 33 26.73"><defs><style>.cls-1,.cls-2{fill:#243858;}.cls-2,.cls-3{opacity:0.5;}</style></defs><title>Asset 16</title><g id="Layer_2" data-name="Layer 2"><g id="N700"><path class="cls-1" d="M29.09,3.53V21.16a1.76,1.76,0,0,1-1.76,1.76H1.76A1.76,1.76,0,0,1,0,21.16V3.53Z"/><path class="cls-2" d="M27.33,0H1.76A1.76,1.76,0,0,0,0,1.76V3.53H29.09V1.76A1.76,1.76,0,0,0,27.33,0ZM2.27,2.64A.76.76,0,1,1,3,1.89.76.76,0,0,1,2.27,2.64Zm2.64,0a.76.76,0,1,1,.76-.76A.76.76,0,0,1,4.91,2.64Zm2.64,0a.76.76,0,1,1,.76-.76A.76.76,0,0,1,7.56,2.64Z"/><g class="cls-3"><path class="cls-1" d="M31.21,6.08H29.93V21.4a2.26,2.26,0,0,1-2.26,2.26H4.41v1.28A1.79,1.79,0,0,0,6.2,26.73h25A1.79,1.79,0,0,0,33,24.94V7.87A1.79,1.79,0,0,0,31.21,6.08Z"/></g><path class="cls-2" d="M31.21,6.08H29.93V9.66H33V7.87A1.79,1.79,0,0,0,31.21,6.08Z"/></g></g></svg>