<svg xmlns="http://www.w3.org/2000/svg" xmlns:xlink="http://www.w3.org/1999/xlink" width="275" height="275" viewBox="0 0 275 275"><defs><linearGradient id="linear-gradient" x1="63.32" y1="178.49" x2="201.06" y2="178.49" gradientUnits="userSpaceOnUse"><stop offset="0.26" stop-color="#ff7143"/><stop offset="0.36" stop-color="#ff7143"/><stop offset="1" stop-color="#ff7143"/></linearGradient><linearGradient id="linear-gradient-2" x1="107.95" y1="259.91" x2="107.95" y2="196.58" gradientUnits="userSpaceOnUse"><stop offset="0" stop-color="#fafbfc"/><stop offset="0.41" stop-color="#f8f9fa"/><stop offset="0.65" stop-color="#eff1f4"/><stop offset="0.84" stop-color="#e1e5e9"/><stop offset="1" stop-color="#cfd4db"/></linearGradient><linearGradient id="linear-gradient-3" x1="62.79" y1="150.24" x2="201.58" y2="150.24" gradientUnits="userSpaceOnUse"><stop offset="0.26" stop-color="#ff5230"/><stop offset="0.31" stop-color="#ff5834"/><stop offset="0.47" stop-color="#ff663c"/><stop offset="0.66" stop-color="#ff6f41"/><stop offset="1" stop-color="#ff7143"/></linearGradient></defs><title>bitbucket-product-features-illistrations</title><g style="isolation:isolate"><g id="Layer_1" data-name="Layer 1"><path d="M174.53,96.38h0c-1.34,0-2.7-.06-4-.18L171.79,81c.89.08,1.8.12,2.7.12Zm19.12-4.22-6.43-13.82c.82-.38,1.63-.81,2.42-1.26l7.64,13.19C196.1,90.95,194.88,91.58,193.65,92.16Zm-41.87-1.84c-1.17-.68-2.33-1.42-3.45-2.2l8.77-12.47c.74.52,1.52,1,2.3,1.47ZM211.7,77.07l-12.46-8.78c.52-.74,1-1.52,1.47-2.3l13.2,7.63C213.23,74.79,212.48,76,211.7,77.07ZM135.12,73.7c-.69-1.18-1.32-2.4-1.9-3.64L147,63.64c.38.81.8,1.62,1.25,2.4ZM219.81,55,204.62,53.6c.08-.89.12-1.81.12-2.72v-.16l15.25,0v.11C220,52.24,219.93,53.61,219.81,55ZM129,51v-.08c0-1.32.06-2.66.17-4l15.19,1.31c-.08.88-.12,1.78-.12,2.67Zm72.92-12.9c-.38-.81-.8-1.62-1.26-2.4L213.81,28c.69,1.18,1.33,2.4,1.9,3.63Zm-53.67-2.24L135,28.21c.68-1.17,1.42-2.33,2.2-3.45l12.48,8.75C149.18,34.26,148.69,35,148.24,35.81Zm43.58-9.75c-.74-.52-1.51-1-2.29-1.46l7.59-13.22c1.18.68,2.35,1.42,3.46,2.2ZM159.29,24.7l-7.67-13.18c1.18-.68,2.39-1.32,3.62-1.9l6.46,13.81C160.88,23.82,160.07,24.25,159.29,24.7Zm17.83-4c-.87-.07-1.75-.11-2.63-.11h-.12V13l0-7.62h0c1.39,0,2.71.06,4,.17Z" style="fill:#ff7143"/><path d="M201.06,152.44,195,188.11v.08l-.18,1-.19.7a9.87,9.87,0,0,1-3.61,4l-3.23,1.39a5.62,5.62,0,0,0-2.46,1.59c-11.26,4.65-31.17,7.67-53.12,7.67s-41.83-3-53.11-7.64a.83.83,0,0,0-.12-.13,5.73,5.73,0,0,0-2.35-1.48l-3.26-1.4a9.63,9.63,0,0,1-3.62-4l-.19-.69-.18-1v-.08l-6.05-35.67c4.24,9.1,34.24,15.93,68.87,15.93S196.82,161.54,201.06,152.44Z" style="fill:url(#linear-gradient)"/><path id="_Clipping_Path_" data-name="&lt;Clipping Path&gt;" d="M132.2,204.54c-21.94,0-41.83-3-53.11-7.64A7,7,0,0,1,81,200.76l7.39,51.64a4.33,4.33,0,0,0,.12.5v0a3.08,3.08,0,0,0,1.4,2.29A4.85,4.85,0,0,0,91,256c6,3.53,22.16,6.05,41.17,6.05,18.59,0,34.46-2.42,40.76-5.83a4.86,4.86,0,0,0,2.32-1.78,3.23,3.23,0,0,0,.26-.38l0-.06a2.46,2.46,0,0,0,.15-.34,4.45,4.45,0,0,0,.38-1.22l7.41-51.64a7.1,7.1,0,0,1,1.88-3.89C174.06,201.52,154.15,204.54,132.2,204.54Z" style="fill:#ff5230"/><path d="M132.2,204.54c-21.5,0-41-2.9-52.4-7.37l.06.72a6.94,6.94,0,0,1,1.1,2.87l7.39,51.64a4.34,4.34,0,0,0,.12.5v0a3.08,3.08,0,0,0,1.41,2.29A4.85,4.85,0,0,0,91,256a27.14,27.14,0,0,0,6.32,2.44c5.77-1.44,11.26-4.15,14.65-9.19,4.76-7.09,2.14-13.83,5.2-23.07,2.11-6.35,7-14.25,19-21.63Q134.16,204.54,132.2,204.54Z" style="mix-blend-mode:multiply;fill:url(#linear-gradient-2)"/><path id="_Clipping_Path_2" data-name="&lt;Clipping Path&gt;" d="M201.43,151.42a4.78,4.78,0,0,1-.38,1c-4.24,9.1-34.24,15.93-68.86,15.93s-64.64-6.83-68.87-15.93a4.78,4.78,0,0,1-.38-1c-2.57-10.36,28.35-19.31,69.25-19.31S204,141.06,201.43,151.42Z" style="fill:url(#linear-gradient-3)"/><path d="M132.2,168.37c22.76,0,43.51-3,56.27-7.56-13.92-3.45-32.55-5.57-53.05-5.57-22.32,0-42.44,2.51-56.65,6.52C91.65,165.82,111.05,168.37,132.2,168.37Z" style="fill:#0057d8"/><line x1="118.11" y1="160.31" x2="118.11" y2="87.34" style="fill:none;stroke:#0065ff;stroke-linecap:round;stroke-miterlimit:10;stroke-width:6.59715817421295px"/><circle cx="174.49" cy="50.87" r="22.89" style="fill:#0065ff"/><circle cx="117.95" cy="87.34" r="14.48" style="fill:#0065ff"/><path d="M118.11,142.1a28.19,28.19,0,0,1,28.19-28.19,28.19,28.19,0,0,0,28.19-28.19V50.87" style="fill:none;stroke:#0065ff;stroke-miterlimit:10;stroke-width:6.59715817421295px"/><line x1="174.49" y1="40.11" x2="174.49" y2="61.64" style="fill:none;stroke:#fff;stroke-linecap:round;stroke-miterlimit:10;stroke-width:3px"/><line x1="185.25" y1="50.87" x2="163.72" y2="50.87" style="fill:none;stroke:#fff;stroke-linecap:round;stroke-miterlimit:10;stroke-width:3px"/></g></g></svg>