<?xml version="1.0" standalone="no"?>
<!DOCTYPE svg PUBLIC "-//W3C//DTD SVG 20010904//EN"
 "http://www.w3.org/TR/2001/REC-SVG-20010904/DTD/svg10.dtd">
<svg version="1.0" xmlns="http://www.w3.org/2000/svg"
 width="320.000000pt" height="320.000000pt" viewBox="0 0 320.000000 320.000000"
 preserveAspectRatio="xMidYMid meet">
<metadata>
Created by potrace 1.11, written by Peter Selinger 2001-2013
</metadata>
<g transform="translate(0.000000,320.000000) scale(0.100000,-0.100000)"
fill="#000000" stroke="none">
<path d="M399 2713 c-33 -14 -51 -51 -44 -91 2 -15 7 -43 10 -62 3 -19 8 -46
10 -60 3 -14 7 -41 10 -60 3 -19 7 -46 10 -60 3 -14 8 -45 10 -68 3 -24 7 -47
9 -50 2 -4 7 -34 11 -67 3 -32 8 -62 10 -65 2 -4 7 -29 11 -56 3 -27 7 -56 9
-64 1 -8 6 -35 10 -60 4 -25 9 -54 11 -65 2 -11 11 -63 19 -115 9 -52 17 -104
19 -115 2 -11 7 -40 11 -65 4 -25 9 -54 11 -65 2 -11 7 -40 10 -65 3 -25 7
-52 9 -60 3 -8 7 -33 10 -55 3 -22 8 -49 10 -61 2 -11 7 -45 11 -75 3 -30 8
-57 10 -60 2 -4 8 -38 14 -75 5 -38 12 -80 14 -94 3 -14 8 -38 11 -55 3 -16 8
-48 10 -70 3 -22 12 -78 20 -125 8 -47 17 -98 20 -115 11 -65 17 -81 34 -102
11 -13 31 -27 45 -33 16 -6 330 -8 853 -6 455 2 833 4 840 5 7 0 21 11 32 22
18 19 23 38 36 129 2 14 11 68 20 120 9 52 18 106 20 120 2 14 18 111 35 215
17 105 33 204 36 220 2 17 9 55 14 85 18 98 91 554 95 595 3 22 7 51 10 65 8
38 13 70 20 120 3 25 8 52 10 60 2 8 6 33 10 55 6 44 5 38 35 211 25 153 25
167 -3 200 l-23 27 -1188 1 c-921 1 -1194 -1 -1217 -11z m1550 -966 c-21 -122
-40 -233 -42 -247 -3 -14 -12 -74 -22 -135 -10 -60 -22 -114 -26 -119 -6 -7
-343 -12 -490 -7 -25 1 -27 6 -43 89 -9 48 -19 98 -21 112 -3 14 -7 39 -10 55
-3 17 -8 41 -10 55 -8 37 -14 68 -25 130 -12 66 -18 97 -25 130 -3 14 -8 39
-11 55 -2 17 -9 44 -13 62 -6 22 -6 33 2 36 7 2 183 4 393 5 l380 0 -37 -221z"/>
</g>
</svg>
