<?xml version="1.0" encoding="utf-8"?>
<!-- Generator: Adobe Illustrator 21.0.2, SVG Export Plug-In . SVG Version: 6.00 Build 0)  -->
<svg version="1.1" id="Layer_1" xmlns="http://www.w3.org/2000/svg" xmlns:xlink="http://www.w3.org/1999/xlink" x="0px" y="0px"
	 viewBox="0 0 720 100" style="enable-background:new 0 0 720 100;" xml:space="preserve">
<style type="text/css">
	.st0{fill-rule:evenodd;clip-rule:evenodd;fill:#C1C7D0;}
	.st1{fill-rule:evenodd;clip-rule:evenodd;fill:#B3BAC5;}
	.st2{fill-rule:evenodd;clip-rule:evenodd;fill:#A5ADBA;}
	.st3{fill:#C1C7D0;}
</style>
<g>
	<path class="st0" d="M234.3,42.1h8.5c4.5,0,6.3,2.3,6,5.7c-0.4,5.6-3.8,8.7-8.3,8.7h-2.3c-0.6,0-1,0.4-1.2,1.5l-1,6.4
		c-0.1,0.4-0.3,0.7-0.6,0.7h-5.3c-0.5,0-0.7-0.4-0.5-1.2l3.2-20.5C232.9,42.5,233.4,42.1,234.3,42.1z"/>
	<path class="st1" d="M271,41.7c2.9,0,5.5,1.5,5.1,5.4c-0.4,4.6-2.9,7.1-6.8,7.1H266c-0.5,0-0.7,0.4-0.9,1.2l-0.7,4.2
		c-0.1,0.6-0.4,0.9-0.9,0.9h-3.2c-0.5,0-0.7-0.3-0.6-1l2.6-16.7c0.1-0.8,0.4-1.1,1-1.1H271L271,41.7z M265.9,50.6l2.6,0
		c1.6-0.1,2.7-1.2,2.8-3.2c0.1-1.2-0.8-2.1-2.1-2.1l-2.4,0L265.9,50.6L265.9,50.6z M284.7,59.3c0.3-0.3,0.6-0.4,0.5-0.1l-0.1,0.8
		c-0.1,0.4,0.1,0.6,0.5,0.6h2.8c0.5,0,0.7-0.2,0.8-0.9l1.7-10.8c0.1-0.5,0-0.8-0.5-0.8h-3.1c-0.3,0-0.4,0.2-0.5,0.6l-0.1,0.7
		c-0.1,0.3-0.2,0.4-0.4,0.1c-0.5-1.2-1.9-1.8-3.7-1.8c-4.3,0.1-7.2,3.4-7.5,7.6c-0.2,3.3,2.1,5.8,5.2,5.8
		C282.6,60.9,283.6,60.3,284.7,59.3L284.7,59.3z M282.3,57.6c-1.9,0-3.2-1.5-2.9-3.3c0.3-1.8,2-3.3,3.9-3.3c1.9,0,3.2,1.5,2.9,3.3
		C285.9,56.1,284.2,57.6,282.3,57.6L282.3,57.6z M296.4,48h-2.8c-0.6,0-0.8,0.4-0.6,1l3.5,10.3l-3.5,4.9c-0.3,0.4-0.1,0.8,0.3,0.8
		h3.2c0.5,0,0.7-0.1,0.9-0.5L308.3,49c0.3-0.5,0.2-1-0.4-1l-3,0c-0.5,0-0.7,0.2-1,0.6l-4.5,6.6l-2-6.6C297.3,48.2,297,48,296.4,48z"
		/>
	<path class="st0" d="M319.6,41.7c2.9,0,5.5,1.5,5.1,5.4c-0.4,4.6-2.9,7.1-6.8,7.1h-3.4c-0.5,0-0.7,0.4-0.9,1.2l-0.7,4.2
		c-0.1,0.6-0.4,0.9-0.9,0.9H309c-0.5,0-0.7-0.3-0.6-1l2.6-16.7c0.1-0.8,0.4-1.1,1-1.1H319.6L319.6,41.7z M314.5,50.6l2.6,0
		c1.6-0.1,2.7-1.2,2.8-3.2c0.1-1.2-0.8-2.1-2.1-2.1l-2.4,0L314.5,50.6L314.5,50.6z M333.3,59.3c0.3-0.3,0.6-0.4,0.5-0.1l-0.1,0.8
		c-0.1,0.4,0.1,0.6,0.5,0.6h2.8c0.5,0,0.7-0.2,0.8-0.9l1.7-10.8c0.1-0.5,0-0.8-0.5-0.8H336c-0.3,0-0.4,0.2-0.5,0.6l-0.1,0.7
		c-0.1,0.3-0.2,0.4-0.4,0.1c-0.5-1.2-1.9-1.8-3.7-1.8c-4.3,0.1-7.2,3.4-7.5,7.6c-0.2,3.3,2.1,5.8,5.2,5.8
		C331.2,60.9,332.2,60.3,333.3,59.3L333.3,59.3z M331,57.6c-1.9,0-3.2-1.5-2.9-3.3c0.3-1.8,2-3.3,3.9-3.3c1.9,0,3.2,1.5,2.9,3.3
		C334.6,56.1,332.8,57.6,331,57.6L331,57.6z M343.9,60.6h-3.2c-0.3,0-0.4-0.2-0.4-0.4l2.8-18c0-0.2,0.3-0.4,0.5-0.4h3.2
		c0.3,0,0.4,0.2,0.4,0.4l-2.8,18C344.4,60.4,344.1,60.6,343.9,60.6z"/>
	<path class="st1" d="M229,35h8.5c2.4,0,5.2,0.1,7.1,1.7c1.3,1.1,1.9,2.9,1.8,4.8c-0.5,6.5-4.4,10.1-9.6,10.1h-4.2
		c-0.7,0-1.2,0.5-1.4,1.7l-1.2,7.4c-0.1,0.5-0.3,0.8-0.7,0.8h-5.2c-0.6,0-0.8-0.4-0.6-1.4l3.8-23.8C227.4,35.5,227.9,35,229,35z"/>
	<path class="st2" d="M231.3,52.6l1.5-9.4c0.1-0.8,0.6-1.2,1.5-1.2h8.5c1.4,0,2.5,0.2,3.4,0.6c-0.9,5.8-4.6,9-9.4,9h-4.2
		C232,51.6,231.6,51.9,231.3,52.6z"/>
</g>
<g>
	<path class="st3" d="M461,37c-0.2,0-1.2-0.2-2.3-0.2c-1.1,0-2.1,0.2-2.3,0.2c-0.1,0-0.2-0.1-0.1-0.2c0.1-0.1,2.4-1.8,2.4-1.8
		s2.3,1.7,2.4,1.8C461.1,37,461.1,37.1,461,37z M457,48.3c0,0-0.1,0-0.2,0.1c0.5,0.4,0.8,1.2,1.8,1.2s1.3-0.8,1.8-1.2
		c0-0.1-0.2-0.1-0.2-0.1s-0.6,0.1-1.7,0.1C457.7,48.5,457,48.3,457,48.3z M458.7,46.9c-0.3,0-0.3-0.1-0.5-0.1
		c-0.2,0-0.5,0.1-0.6,0.3c0,0.1,0,0.1,0.1,0.2c0.4,0.1,0.6,0.3,1.1,0.3s0.7-0.2,1.1-0.3c0-0.1,0.1-0.1,0.1-0.2
		c-0.1-0.1-0.4-0.3-0.6-0.3C459,46.8,459,46.9,458.7,46.9z M481.5,51.3c0,0.5-0.1,1.1-0.1,1.6c-2.6,0.4-3.5-1.9-6.2-1.8
		c0.2,0.6,0.3,1.1,0.4,1.7c2.2,0,3.1,2,5.5,1.7c-0.1,0.6-0.3,1.2-0.5,1.8c-1.9,0.2-2.6-1.7-4.8-1.7c0,0.3,0,0.6,0,1
		c0,0.2,0,0.4,0,0.5c1.9,0,2.5,1.7,4.3,1.6c-0.2,0.6-0.5,1.2-0.8,1.8c-1.3-0.1-1.7-1.7-3.7-1.6c-0.1,0.4-0.1,0.8-0.2,1.3
		c1.7-0.1,2.1,1.5,3.3,1.6c-0.3,0.6-0.6,1.1-1,1.7c-0.7-0.4-1.4-1.6-2.7-1.6c0.1-0.4,0.3-0.9,0.4-1.3c-1.2,0-2.6-0.5-3.8-1.5
		c0.4-2.2-3-4.4-3-6c0-1.7,0.9-2.7,0.9-5c0-1.7-0.8-3.6-2.1-4.9c-0.2-0.2-0.5-0.4-0.8-0.6c1.2,1.4,2,3.1,2,5.1c0,2.2-1,3.3-1,5.4
		c0,2,3,3.8,3,5.8c0,0.8-0.3,1.6-1.1,3.2c1.3,1.3,3.1,2,4.2,2c0.4,0,0.6-0.1,0.7-0.4c0.1-0.2,0.2-0.5,0.3-0.7c1.2,0,1.7,1.1,2.4,1.6
		c-0.4,0.5-0.7,1-1.1,1.4c-0.4-0.5-1-1.3-1.9-1.6c-0.2,0.3-0.3,0.6-0.5,0.9c0.8,0.2,1.3,1,1.7,1.5c-0.4,0.4-0.9,0.9-1.3,1.3
		c-0.3-0.5-0.7-1-1.3-1.3c-0.2,0.3-0.4,0.5-0.6,0.7c0.4,0.3,0.8,0.8,1.1,1.2c-0.5,0.4-1.1,0.8-1.7,1.2c-0.3-2.3-3.4-3.9-2.6-6.6
		c-0.3,0.5-0.6,1.1-0.6,1.8c0,1.9,2.1,3.5,2.2,5.4c-0.4,0.3-0.9,0.5-1.3,0.7c-0.1-2.1-2.3-4.5-2.3-6.2c0-1.9,2.6-3.9,2.6-6.2
		c0-2.3-2.9-3.9-2.9-5.9c0-2,1.3-3.2,1.3-5.8c0-1.9-0.9-3.8-2.3-5c-0.2-0.2-0.5-0.4-0.8-0.5c1.3,1.6,2.1,3,2.1,5.2
		c0,2.4-1.4,3.8-1.4,6.2c0,2.4,2.9,3.7,2.9,5.9s-2.7,4.1-2.7,6.4c0,2.1,2.4,4.1,2.4,6.6c-0.5,0.2-1,0.4-1.6,0.6
		c0.3-2.5-2.4-5.1-2.4-7.1c0-2.2,2.8-4.1,2.8-6.5c0-2.4-2.8-3.5-2.8-6c0-2.5,1.7-3.8,1.7-6.5c0-2.1-1-4-2.6-5.2c0,0-0.1,0-0.1-0.1
		c-0.1-0.1-0.3,0-0.2,0.1c1.1,1.3,1.7,2.7,1.7,4.7c0,2.5-2,4.5-2,6.9c0,2.8,2.7,3.6,2.7,6c0,2.3-2.9,4.2-2.9,6.7
		c0,2.3,2.7,4.8,2.3,7.5c-0.5,0.1-1.1,0.3-1.7,0.4c0.5-3.3-2.2-5.7-2.2-7.8c0-2.3,3-4.4,3-6.7c0-2.2-2.1-2.9-2.4-5.1
		c0-0.3-0.3-0.5-0.6-0.5c-0.4,0.1-1,0.4-1.9,0.4c-0.9,0-1.4-0.3-1.9-0.4c-0.3-0.1-0.6,0.2-0.6,0.5c-0.3,2.2-2.4,2.9-2.4,5.1
		c0,2.3,3,4.4,3,6.7c0,2.2-2.7,4.5-2.2,7.8c-0.6-0.1-1.1-0.2-1.7-0.4c-0.5-2.6,2.3-5.2,2.3-7.5c0-2.5-2.9-4.3-2.9-6.7
		c0-2.3,2.7-3.1,2.7-6c0-2.4-2-4.4-2-6.9c0-2,0.6-3.4,1.7-4.7c0.1-0.1,0-0.3-0.2-0.1c0,0-0.1,0-0.1,0.1c-1.5,1.2-2.6,3.1-2.6,5.2
		c0,2.7,1.7,4.1,1.7,6.5c0,2.5-2.8,3.6-2.8,6c0,2.4,2.8,4.3,2.8,6.5c0,2-2.7,4.6-2.4,7.1c-0.5-0.2-1.1-0.4-1.6-0.6
		c0-2.5,2.4-4.5,2.4-6.6c0-2.3-2.7-4.2-2.7-6.4s2.9-3.5,2.9-5.9c0-2.4-1.4-3.7-1.4-6.2c0-2.2,0.8-3.6,2.1-5.2
		c-0.3,0.2-0.5,0.3-0.8,0.5c-1.4,1.2-2.3,3.1-2.3,5c0,2.6,1.3,3.7,1.3,5.8c0,2-2.9,3.6-2.9,5.9c0,2.3,2.6,4.3,2.6,6.2
		c0,1.7-2.2,4.1-2.3,6.2c-0.4-0.2-0.9-0.5-1.3-0.7c0.2-1.9,2.2-3.5,2.2-5.4c0-0.7-0.3-1.3-0.6-1.8c0.9,2.7-2.3,4.3-2.6,6.6
		c-0.6-0.4-1.1-0.8-1.7-1.2c0.2-0.4,0.6-1,1.1-1.2c-0.2-0.2-0.4-0.5-0.6-0.7c-0.5,0.3-1,0.9-1.3,1.3c-0.5-0.4-0.9-0.8-1.3-1.3
		c0.4-0.5,0.9-1.3,1.7-1.5c-0.2-0.3-0.3-0.6-0.5-0.9c-0.9,0.2-1.5,1.1-1.9,1.6c-0.4-0.5-0.8-0.9-1.1-1.4c0.7-0.4,1.2-1.5,2.4-1.6
		c0.1,0.2,0.2,0.5,0.3,0.7c0.1,0.3,0.3,0.4,0.7,0.4c1.1,0,2.8-0.7,4.2-2c-0.9-1.6-1.1-2.4-1.1-3.2c0-2.1,3-3.8,3-5.8
		c0-2-1-3.2-1-5.4c0-2,0.9-3.7,2-5.1c-0.3,0.2-0.5,0.4-0.8,0.6c-1.3,1.3-2.1,3.1-2.1,4.9c0,2.3,0.9,3.3,0.9,5c0,1.6-3.4,3.8-3,6
		c-1.2,1.1-2.6,1.5-3.8,1.5c0.1,0.5,0.2,0.9,0.4,1.3c-1.4,0.1-2,1.2-2.7,1.6c-0.4-0.5-0.7-1.1-1-1.7c1.2-0.1,1.6-1.7,3.3-1.6
		c-0.1-0.4-0.2-0.8-0.2-1.3c-2-0.1-2.4,1.5-3.7,1.6c-0.3-0.6-0.5-1.2-0.8-1.8c1.8,0.1,2.4-1.7,4.3-1.6c0-0.2,0-0.4,0-0.5
		c0-0.3,0-0.6,0-1c-2.2-0.1-2.9,1.9-4.8,1.7c-0.2-0.6-0.3-1.2-0.5-1.8c2.4,0.3,3.3-1.7,5.5-1.7c0.1-0.6,0.2-1.2,0.4-1.7
		c-2.6-0.1-3.6,2.2-6.2,1.8c-0.1-0.5-0.1-1.1-0.1-1.6c3,0.3,4.1-2.1,6.9-1.8c0.3-0.7,0.6-1.3,0.9-1.9c-3.4-0.6-4.6,2.3-7.8,1.8
		c0.3-12.3,10.4-22.2,22.8-22.2c12.4,0,22.5,9.9,22.8,22.2c-3.2,0.4-4.4-2.4-7.8-1.8c0.3,0.6,0.6,1.2,0.9,1.9
		C477.3,49.1,478.5,51.6,481.5,51.3z M448.9,41.7c-1.7-0.7-3.7-0.5-5.5,0.6c-0.3-1.6-1.1-3.1-2.4-3.9c-0.2-0.1-0.4,0-0.3,0.2
		c0.3,3.4-1.7,6.4-4.2,9c2.5,0.8,4.7-2.5,8-1.4C445.6,44.4,447.1,42.9,448.9,41.7z M458.7,39.6c-2.1,0-3.9,1.2-4.4,2.7
		c0,0.1,0,0.2,0.1,0.1c0.4-0.2,0.8-0.3,1.3-0.3c0.9,0,1.6,0.3,2.1,0.9c0.2,0.7,0.2,1.6,0,2.2c-0.4-0.1-0.5-0.4-0.8-0.4
		c-0.3,0-0.6,0.2-1.2,0.2c-0.6,0-0.7-0.3-1-0.3c-0.5,0-0.5,0.5-0.5,1c0,2.4,2.2,5.6,4.5,5.6c2.3,0,4.5-3.2,4.5-5.6
		c0-0.5-0.1-1-0.6-1c-0.2,0.2-0.5,0.3-1,0.3c-0.6,0-0.8-0.2-1.1-0.2c-0.4,0-0.4,0.9-0.9,0.9c-0.3-0.8-0.3-1.8-0.1-2.7
		c0.5-0.6,1.2-0.9,2.1-0.9c0.5,0,0.9,0.1,1.3,0.3c0.1,0.1,0.2,0,0.1-0.1C462.6,40.8,460.8,39.6,458.7,39.6z M462.1,43
		c-0.5,0-1.1,0.2-1.5,0.6c0,0.1,0,0.3,0,0.4c0.9-0.3,1.7-0.3,2.1,0.1c0.2-0.2,0.3-0.4,0.3-0.6C463,43.2,462.7,43,462.1,43z
		 M454.6,44.1c0.4-0.4,1.4-0.4,2.4-0.1c0-0.5-0.8-1-1.7-1c-0.6,0-0.9,0.2-0.9,0.5C454.4,43.7,454.4,43.9,454.6,44.1z M469.2,36.1
		c-1.7,0.1-3.1,0.7-4.3,1.7c0.5-1.4,1.1-2.7,1.9-3.9c-2.1,0.2-3.9,1-5.2,2.3l-1-2.7l2.3-2l-3-0.2l-1.2-2.8l-1.2,2.8l-3,0.2l2.3,2
		l-1,2.7c-1.3-1.3-3.1-2.1-5.2-2.3c0.8,1.2,1.4,2.4,1.9,3.9c-1.2-1-2.6-1.5-4.3-1.7c1,1.3,1.9,2.7,2.6,4.1c0.1,0.2,0.2,0.2,0.4,0.1
		c2.3-1.1,4.9-1.8,7.6-1.8c2.7,0,5.3,0.6,7.6,1.8c0.2,0.1,0.3,0,0.4-0.1C467.3,38.8,468.2,37.4,469.2,36.1z M472.9,46.2
		c3.3-1.1,5.4,2.1,8,1.4c-2.5-2.6-4.5-5.6-4.2-9c0-0.2-0.2-0.3-0.3-0.2c-1.2,0.9-2.1,2.3-2.4,3.9c-1.7-1.1-3.8-1.3-5.5-0.6
		C470.2,42.9,471.7,44.4,472.9,46.2z"/>
</g>
<g>
	<path class="st3" d="M91.2,32.2C62.9,32.2,40,40.2,40,50s22.9,17.8,51.2,17.8c28.3,0,51.2-8,51.2-17.8S119.5,32.2,91.2,32.2z
		 M91.2,66.3C63.9,66.3,41.8,59,41.8,50c0-9,22.1-16.3,49.4-16.3c27.3,0,49.4,7.3,49.4,16.3C140.7,59,118.5,66.3,91.2,66.3z"/>
	<path class="st3" d="M80,47.7c1.3-0.2,3.3-0.4,4.6-0.4c0.3,0,0.3,0,0.4,0.1c0.3,0.4,0.8,0.8,1.2,1c0.2,0.1,0.3,0.2,0.4,0.2
		c0.2,0,0.3-0.1,0.4-0.2c0.1-0.1,0.2-0.3,0.1-0.5c-0.1-0.1-1-0.6-1-0.8c0-0.1,0.1-0.2,0.1-0.2c0.6-0.2,1.3-0.6,1.7-1.4
		c0.4-0.8,0.5-1.8-0.3-2.4c-0.6-0.5-1.6-0.4-2.4,0.3c-0.8,0.7-1,1.7-0.9,2.5c0,0.1,0,0.2-0.2,0.2c-1.2,0.1-2.3,0.1-3.5,0.2
		c-0.1,0-0.1,0-0.1-0.1c1.4-2.5,3.6-4.3,6-6c0.2-0.1,0.1-0.3,0.1-0.5c4.3,0.9,8.4,2.7,12.9,2.6c1.8,0,3.6-0.3,5.3-1.2
		c1.5-0.8,2.1-1.6,2.1-2.3c0-0.5-0.3-0.9-0.9-0.8c-4.5,1-8.8,1-13.3,0.5c-5.1-0.6-10-1.9-15-1.9c-0.8,0-1.5,0-2.3,0.1
		c-4.9,0.4-9.5,3.2-9.5,7.3c0,2.1,1.5,3.8,3.8,3.8c2.7-0.1,5-2.3,6.2-5.1c0.4-1.1-0.4-1.5-0.8-0.9c-0.7,1.1-1.7,1.9-2.8,2.5
		c-1.3,0.6-2.7,0.5-3.1-0.6c-0.6-1.5,0.6-3.7,3.4-4.7c4-1.5,8.2-0.5,12.3,0.3c0.1,0,0.3,0.1,0.1,0.2c-0.7,0.4-1.4,0.7-2.6,1.7
		c-0.8,0.7-1.8,1.6-2.7,2.6c-0.8,1-1.4,1.8-2.1,2.8c-0.1,0.1-0.2,0.1-0.2,0.1c-1.8,0.3-3.6,0.5-5.3,1.7c-0.3,0.2-0.5,0.7-0.3,1
		c0.2,0.3,0.6,0.3,0.9,0.1c1-0.8,2.1-1.1,3.3-1.2c0.1,0,0.1,0,0.1,0c0,0,0,0.1,0,0.1c-1.8,2.5-2.3,3.1-3.6,4.6
		c-0.7,0.8-1.4,1.5-2.1,2.2c-3.1,2.9-6.4,2.8-7.6,1c-0.7-1.1-0.6-2.2-0.2-3.2c0.6-1.2,1.7-2,2.7-2.5c0.4-0.2,0.5-0.6,0.1-1.1
		c-0.2-0.3-0.8-0.3-1.2-0.2c-1.3,0.2-2.8,1.2-3.6,2.3c-1,1.3-1.5,2.9-1.3,4.6c0.3,3.2,2.9,5,5.9,5c2.4,0,4.6-0.7,7.3-3.4
		c2.5-2.5,4.8-6.3,6.9-9.8C79.7,47.8,79.7,47.8,80,47.7z M86.3,44.1c0.3-0.2,0.6-0.3,0.8-0.1c0.2,0.2,0.1,0.7-0.1,1.1
		c-0.3,0.4-0.7,0.7-1.1,0.8c0,0,0,0,0,0c-0.1,0-0.1,0-0.2-0.2C85.7,45.2,85.8,44.5,86.3,44.1z"/>
	<path class="st3" d="M123,44h-2.7c-0.2,0-0.3,0-0.4,0.2c-0.3,0.6-4.2,6.3-4.9,7.5c-0.1,0.2-0.3,0.1-0.3,0c-0.1-0.7-0.6-1.4-1.5-1.8
		c-0.7-0.3-1.4-0.3-2.1-0.2c-1.3,0.2-2.4,0.8-3.4,1.6c-1.5,1.1-2.8,2.6-4.4,3.7c-0.9,0.6-2.1,1.1-3,0.3c-0.8-0.7-0.7-2.2,0.5-3.4
		c0.1-0.1,0.3,0,0.2,0.1c-0.1,0.5,0,1.1,0.4,1.5c0.5,0.4,1.2,0.5,1.8,0.2c0.7-0.4,1.1-1.1,1.3-1.8c0.2-1.2-0.7-2.3-1.9-2.4
		c-1-0.1-1.9,0.3-2.8,1c-0.4,0.4-0.7,0.6-1.1,1.2c-0.1,0.1-0.2,0.1-0.2-0.1c0-1.6-0.6-2.4-1.9-2.5c-1,0-2.1,0.5-2.9,1.2
		c-0.9,0.7-1.7,1.7-2.6,2.6c-0.1,0.1-0.2,0.1-0.2-0.1c0-1-0.3-2-0.8-2.7c-0.2-0.2-0.5-0.4-0.8-0.2c-0.1,0.1-0.6,0.3-1,0.6
		c-0.2,0.1-0.2,0.4-0.2,0.6c0.5,1.5,0.4,3.3-0.3,4.8c-0.6,1.4-1.7,2.6-3,3c-0.9,0.3-1.8,0.1-2.3-0.6c-0.8-1.1-0.5-2.9,0.7-4.4
		c1-1.3,2.5-2.2,3.9-2.8c0.2-0.1,0.2-0.2,0.2-0.3c-0.1-0.2-0.2-0.6-0.3-0.7c-0.1-0.4-0.5-0.4-1-0.4c-1.1,0.1-2,0.5-2.9,1
		c-2.5,1.3-3.7,3.9-4.2,5.2c-0.3,0.7-0.5,1.1-0.8,1.4c-0.4,0.5-0.9,0.9-1.8,1.7c-0.1,0.1-0.1,0.2-0.1,0.4c0.1,0.2,0.6,0.8,0.7,0.9
		c0.1,0.1,0.3,0,0.4-0.1c0.6-0.4,1.4-1.1,1.7-1.5c0.1-0.2,0.3-0.1,0.3,0.1c0.3,1.2,1.2,2.2,2.5,2.6c2.3,0.8,4.6-0.3,6.4-2.3
		c1.1-1.2,1.5-2,2-2.5c0.7-0.9,2.2-2.9,3.9-4.2c0.6-0.5,1.4-0.8,1.7-0.6c0.3,0.2,0.4,0.6-0.1,1.5c-1.7,3.2-4.3,6.9-4.8,7.9
		c-0.1,0.2,0,0.3,0.2,0.3c0.9,0,1.8,0,2.7,0c0.1,0,0.2-0.1,0.3-0.2c1.3-2.1,2.6-4.1,4-6.2c0.1-0.1,0.1,0,0.1,0
		c0,0.5,0.1,1.1,0.4,1.6c0.5,0.8,1.2,1.1,2,1.1c0.6,0,1-0.1,1.7-0.3c0.6-0.2,1-0.5,1.4-0.7c0.2-0.1,0.2,0.1,0.2,0.1
		c-0.3,1.7,0.1,3.6,1.7,4.5c2,1,4.2-0.4,5.4-1.6c0.1-0.1,0.3-0.1,0.3,0.2c0,0.5,0.2,1,0.6,1.4c1.1,1.1,3.2,0.6,5.3-1
		c1.4-1.1,2.8-2.5,4.1-4.1c0-0.1,0.1-0.2,0-0.3c-0.2-0.2-0.5-0.4-0.7-0.6c-0.1-0.1-0.2-0.1-0.3,0c-1.3,1.3-2.5,2.7-4.2,3.9
		c-0.6,0.4-1.5,0.7-1.9,0.2c-0.2-0.2-0.1-0.5,0-0.9c0.5-1.3,8.5-13.4,8.9-14.1C123.2,44,123.1,44,123,44z M112.6,54.3
		c0,0.1,0.1,0.2,0.3,0.2c0,0,0.1,0,0,0.1c-0.3,0.7-0.7,1.1-1.1,1.8c-0.4,0.6-0.8,1-1.4,1.5c-0.6,0.5-1.4,1.1-2.2,1.1
		c-0.2,0-0.4,0-0.7-0.2c-0.4-0.2-0.6-0.8-0.6-1.2c0-1.3,0.6-2.6,1.7-4c1.3-1.6,2.7-2.4,3.7-2c1,0.5,0.7,1.6,0.2,2.5
		C112.6,54.2,112.6,54.3,112.6,54.3z"/>
</g>
<g>
	<g>
		<path class="st3" d="M677.3,46.2v1.2c-1.3-1-2.9-1.7-4.7-1.7c-4.1,0-7.4,3.3-7.4,7.4s3.3,7.4,7.4,7.4c1.8,0,3.4-0.6,4.7-1.7v1.2
			h2.7v-14H677.3z M672.7,57.8c-2.6,0-4.6-2.1-4.6-4.6c0-2.6,2.1-4.6,4.6-4.6s4.6,2.1,4.6,4.6C677.3,55.7,675.3,57.8,672.7,57.8z"/>
		<path class="st3" d="M580.1,45.7c-1.8,0-3.4,0.6-4.7,1.7v-1.2h-2.7v18.4h1.4c0.8,0,1.4-0.6,1.4-1.4v-4.3c1.3,1,2.9,1.7,4.7,1.7
			c4.1,0,7.4-3.3,7.4-7.4C587.6,49.1,584.2,45.7,580.1,45.7z M580,57.8c-2.6,0-4.6-2.1-4.6-4.6c0-2.6,2.1-4.6,4.6-4.6
			s4.6,2.1,4.6,4.6C584.6,55.7,582.5,57.8,580,57.8z"/>
		<path class="st3" d="M647.6,45.7c-4.1,0-7.4,3.3-7.4,7.4c0,4.1,3.3,7.4,7.4,7.4s7.4-3.3,7.4-7.4C655.1,49.1,651.7,45.7,647.6,45.7
			z M647.6,57.6c-2.5,0-4.5-2-4.5-4.5c0-2.5,2-4.5,4.5-4.5s4.5,2,4.5,4.5C652.1,55.6,650.1,57.6,647.6,57.6z"/>
		<path class="st3" d="M601.4,47.4c-1.3-1-2.9-1.7-4.7-1.7c-4.1,0-7.4,3.3-7.4,7.4s3.3,7.4,7.4,7.4c1.8,0,3.4-0.6,4.7-1.7v1.2h2.7
			v-14h-2.7V47.4z M596.9,57.8c-2.6,0-4.6-2.1-4.6-4.6c0-2.6,2.1-4.6,4.6-4.6s4.6,2.1,4.6,4.6C601.5,55.7,599.5,57.8,596.9,57.8z"/>
		<path class="st3" d="M618.3,47.2c-1.2-0.9-2.8-1.5-4.5-1.5c-1.7,0-3.2,0.6-4.5,1.5c-1.8,1.4-3,3.5-3,6v7h3v-7c0-2.5,2-4.5,4.5-4.5
			c2.5,0,4.5,2,4.5,4.5v7h3v-7C621.3,50.7,620.1,48.6,618.3,47.2z"/>
		<path class="st3" d="M635.4,43.1L635.4,43.1v4.3c-1.3-1-2.9-1.7-4.7-1.7c-4.1,0-7.4,3.3-7.4,7.4c0,4.1,3.3,7.4,7.4,7.4
			c1.8,0,3.4-0.6,4.7-1.7v1.2h2.7V41.7h-1.4C636.1,41.7,635.4,42.3,635.4,43.1z M630.9,57.8c-2.6,0-4.6-2.1-4.6-4.6
			c0-2.6,2.1-4.6,4.6-4.6s4.6,2.1,4.6,4.6C635.5,55.7,633.5,57.8,630.9,57.8z"/>
		<path class="st3" d="M659.9,47.1c-1.6,1-3,2.8-3,6v7h3v-7c0-4.6,4.8-4.4,4.8-4.4v-3v0C664.7,45.7,662.1,45.7,659.9,47.1z"/>
	</g>
	<g>
		<path class="st3" d="M677.3,46.2v1.2c-1.3-1-2.9-1.7-4.7-1.7c-4.1,0-7.4,3.3-7.4,7.4s3.3,7.4,7.4,7.4c1.8,0,3.4-0.6,4.7-1.7v1.2
			h2.7v-14H677.3z M672.7,57.8c-2.6,0-4.6-2.1-4.6-4.6c0-2.6,2.1-4.6,4.6-4.6s4.6,2.1,4.6,4.6C677.3,55.7,675.3,57.8,672.7,57.8z"/>
		<path class="st3" d="M580.1,45.7c-1.8,0-3.4,0.6-4.7,1.7v-1.2h-2.7v18.4h1.4c0.8,0,1.4-0.6,1.4-1.4v-4.3c1.3,1,2.9,1.7,4.7,1.7
			c4.1,0,7.4-3.3,7.4-7.4C587.6,49.1,584.2,45.7,580.1,45.7z M580,57.8c-2.6,0-4.6-2.1-4.6-4.6c0-2.6,2.1-4.6,4.6-4.6
			s4.6,2.1,4.6,4.6C584.6,55.7,582.5,57.8,580,57.8z"/>
		<path class="st3" d="M647.6,45.7c-4.1,0-7.4,3.3-7.4,7.4c0,4.1,3.3,7.4,7.4,7.4s7.4-3.3,7.4-7.4C655.1,49.1,651.7,45.7,647.6,45.7
			z M647.6,57.6c-2.5,0-4.5-2-4.5-4.5c0-2.5,2-4.5,4.5-4.5s4.5,2,4.5,4.5C652.1,55.6,650.1,57.6,647.6,57.6z"/>
		<path class="st3" d="M601.4,47.4c-1.3-1-2.9-1.7-4.7-1.7c-4.1,0-7.4,3.3-7.4,7.4s3.3,7.4,7.4,7.4c1.8,0,3.4-0.6,4.7-1.7v1.2h2.7
			v-14h-2.7V47.4z M596.9,57.8c-2.6,0-4.6-2.1-4.6-4.6c0-2.6,2.1-4.6,4.6-4.6s4.6,2.1,4.6,4.6C601.5,55.7,599.5,57.8,596.9,57.8z"/>
		<path class="st3" d="M618.3,47.2c-1.2-0.9-2.8-1.5-4.5-1.5c-1.7,0-3.2,0.6-4.5,1.5c-1.8,1.4-3,3.5-3,6v7h3v-7c0-2.5,2-4.5,4.5-4.5
			c2.5,0,4.5,2,4.5,4.5v7h3v-7C621.3,50.7,620.1,48.6,618.3,47.2z"/>
		<path class="st3" d="M635.4,43.1L635.4,43.1v4.3c-1.3-1-2.9-1.7-4.7-1.7c-4.1,0-7.4,3.3-7.4,7.4c0,4.1,3.3,7.4,7.4,7.4
			c1.8,0,3.4-0.6,4.7-1.7v1.2h2.7V41.7h-1.4C636.1,41.7,635.4,42.3,635.4,43.1z M630.9,57.8c-2.6,0-4.6-2.1-4.6-4.6
			c0-2.6,2.1-4.6,4.6-4.6s4.6,2.1,4.6,4.6C635.5,55.7,633.5,57.8,630.9,57.8z"/>
		<path class="st3" d="M659.9,47.1c-1.6,1-3,2.8-3,6v7h3v-7c0-4.6,4.8-4.4,4.8-4.4v-3v0C664.7,45.7,662.1,45.7,659.9,47.1z"/>
	</g>
</g>
</svg>
