<svg id="Layer_1" data-name="Layer 1" xmlns="http://www.w3.org/2000/svg" xmlns:xlink="http://www.w3.org/1999/xlink" width="275" height="275" viewBox="0 0 275 275"><defs><linearGradient id="linear-gradient" x1="137" y1="349" x2="137" y2="517" gradientTransform="matrix(1, 0, 0, -1, 0, 571)" gradientUnits="userSpaceOnUse"><stop offset="0" stop-color="#0079bf"/><stop offset="1" stop-color="#0079bf"/></linearGradient></defs><title>bitbucket-product-features-illistrations</title><g id="Page-1"><g id="Logos"><g id="Group"><g id="Trello-Logo"><g id="Trello-Mark---Blue---Flat"><g id="Mark"><path id="Board" d="M74,54H200a21,21,0,0,1,21,21V201a21,21,0,0,1-21,21H74a21,21,0,0,1-21-21V75A21,21,0,0,1,74,54Z" style="fill:url(#linear-gradient)"/><path id="Right-List" d="M158,75.84h31.08a10.11,10.11,0,0,1,10.08,10.08v53.34a10.11,10.11,0,0,1-10.08,10.08H158a10.11,10.11,0,0,1-10.08-10.08V85.92A10.11,10.11,0,0,1,158,75.84Z" style="fill:#fff"/><path id="Left-List" d="M84.92,75.84H116a10.11,10.11,0,0,1,10.08,10.08v95.34A10.11,10.11,0,0,1,116,191.34H84.92a10.11,10.11,0,0,1-10.08-10.08V85.92A10.11,10.11,0,0,1,84.92,75.84Z" style="fill:#fff"/></g></g></g></g></g></g></svg>