<svg id="Layer_1" data-name="Layer 1" xmlns="http://www.w3.org/2000/svg" xmlns:xlink="http://www.w3.org/1999/xlink" width="275" height="275" viewBox="0 0 275 275"><defs><linearGradient id="linear-gradient" x1="45.71" y1="208.73" x2="229.29" y2="25.14" gradientTransform="translate(-0.18 0.21) rotate(-0.09)" gradientUnits="userSpaceOnUse"><stop offset="0.21" stop-color="#0065ff"/><stop offset="1" stop-color="#4c9aff"/></linearGradient><clipPath id="clip-path"><rect id="_Rectangle_" data-name="&lt;Rectangle&gt;" x="38.13" y="32.7" width="198.74" height="168.48" transform="translate(0.18 -0.21) rotate(0.09)" style="fill:url(#linear-gradient)"/></clipPath></defs><title>bitbucket-product-features-illistrations</title><rect id="_Rectangle_2" data-name="&lt;Rectangle&gt;" x="38.13" y="32.7" width="198.74" height="168.48" transform="translate(0.18 -0.21) rotate(0.09)" style="fill:url(#linear-gradient)"/><g style="clip-path:url(#clip-path)"><path d="M184.18,243.41,38.4,243.17s-.93-80.33-.34-81A76.52,76.52,0,0,0,51.49,142.9a77,77,0,0,0,7.7-32.48Z" style="fill:#0057d8"/></g><rect x="59.22" y="52.13" width="156.64" height="73.83" transform="translate(0.14 -0.21) rotate(0.09)" style="fill:#253858"/><path id="_Clipping_Path_" data-name="&lt;Clipping Path&gt;" d="M195.57,73.3l-64.38-.1c-12.7,0-9.13-10.55-21.68-10.57l-23.36,0A4.43,4.43,0,0,0,81.71,67v6.11l-.14,88.77,118.29.18L200,77.74A4.43,4.43,0,0,0,195.57,73.3Z" style="fill:#505f79"/><path id="_Clipping_Path_2" data-name="&lt;Clipping Path&gt;" d="M200,81.88l-71.21-.11c-14,0-10.09-11.67-24-11.7L78.94,70A4.9,4.9,0,0,0,74,74.93v6.76l-.15,98.19,130.84.2.14-93.29A4.9,4.9,0,0,0,200,81.88Z" style="fill:#3dc7dc"/><path id="_Clipping_Path_3" data-name="&lt;Clipping Path&gt;" d="M203.63,90.28l-76.4-.12c-15.07,0-10.83-12.52-25.73-12.55l-27.71,0a5.26,5.26,0,0,0-5.26,5.25v7.25l-.16,105.34,140.37.22.15-100.09A5.25,5.25,0,0,0,203.63,90.28Z" style="fill:#6bd5e5"/><path id="_Clipping_Path_4" data-name="&lt;Clipping Path&gt;" d="M205.8,99.45l-80.34-.12c-15.84,0-11.39-13.17-27.06-13.19l-29.14,0a5.53,5.53,0,0,0-5.53,5.52v7.63L63.55,210l147.61.23L211.32,105A5.53,5.53,0,0,0,205.8,99.45Z" style="fill:#9ce3ee"/><rect x="59.09" y="110.55" width="156.64" height="132.79" transform="translate(0.27 -0.21) rotate(0.09)" style="fill:#3384ff"/><rect x="121.65" y="214.42" width="45.41" height="8.11" rx="2.77" ry="2.77" transform="translate(0.34 -0.22) rotate(0.09)" style="fill:#fafbfc"/><circle cx="109.95" cy="218.42" r="4.06" transform="translate(-108.64 328.04) rotate(-89.91)" style="fill:#fafbfc"/><rect x="107.7" y="144.84" width="59.44" height="46.64" transform="translate(0.26 -0.21) rotate(0.09)" style="fill:none;stroke:#0057d8;stroke-linejoin:round;stroke-width:1.9743968998398627px"/><polyline points="148.91 159.45 157.27 168.56 148.17 176.92" style="fill:none;stroke:#0057d8;stroke-linecap:round;stroke-linejoin:round;stroke-width:1.9743968998398627px"/><polyline points="126.84 159.27 117.73 167.63 126.09 176.74" style="fill:none;stroke:#0057d8;stroke-linecap:round;stroke-linejoin:round;stroke-width:1.9743968998398627px"/><line x1="140.48" y1="156.24" x2="133.85" y2="180.05" style="fill:none;stroke:#0057d8;stroke-linecap:round;stroke-linejoin:round;stroke-width:1.9743968998398627px"/></svg>