<svg xmlns="http://www.w3.org/2000/svg" xmlns:xlink="http://www.w3.org/1999/xlink" viewBox="0 0 246 209.35"><defs><style>.cls-1{fill:#ebecf0;}.cls-2{fill:#fff;}.cls-3{isolation:isolate;}.cls-4{fill:#505f79;}.cls-5{fill:#c1c7d0;}.cls-6{fill:#dfe1e5;}.cls-7{clip-path:url(#clip-path);}.cls-8{clip-path:url(#clip-path-2);}.cls-9{fill:#0065ff;}.cls-10{fill:#4c9aff;}.cls-11{opacity:0.63;mix-blend-mode:multiply;fill:url(#linear-gradient);}.cls-12{fill:#79f2c0;}.cls-13{fill:#b2d4ff;}.cls-14,.cls-15,.cls-16,.cls-21{fill:none;stroke-width:2px;}.cls-14{stroke:#c1c7d0;}.cls-14,.cls-15,.cls-16{stroke-miterlimit:10;}.cls-15{stroke:#36b37e;}.cls-16{stroke:#0065ff;}.cls-17{fill:#f4f5f7;}.cls-18{fill:#36b37e;}.cls-19{fill:url(#linear-gradient-2);}.cls-20{fill:#57d9a3;}.cls-21{stroke:#fff;stroke-linecap:round;stroke-linejoin:round;}</style><clipPath id="clip-path"><rect id="_Rectangle_" data-name="&lt;Rectangle&gt;" class="cls-1" x="95.68" y="56.79" width="101.32" height="165.75" transform="translate(286 -6.68) rotate(90)"/></clipPath><clipPath id="clip-path-2"><path id="_Compound_Clipping_Path_" data-name="&lt;Compound Clipping Path&gt;" class="cls-2" d="M150.72,192.26H94.47a1.81,1.81,0,0,1-1.81-1.81V114a1.81,1.81,0,0,1,1.81-1.81h56.26a1.81,1.81,0,0,1,1.81,1.81v76.42A1.81,1.81,0,0,1,150.72,192.26Zm67-1.81V114a1.81,1.81,0,0,0-1.81-1.81H159.66a1.81,1.81,0,0,0-1.81,1.81v76.42a1.81,1.81,0,0,0,1.81,1.81h56.26A1.81,1.81,0,0,0,217.72,190.46Z"/></clipPath><linearGradient id="linear-gradient" x1="149.1" y1="181.09" x2="149.1" y2="158.65" gradientUnits="userSpaceOnUse"><stop offset="0" stop-color="#c1c7d0" stop-opacity="0.1"/><stop offset="0.02" stop-color="#c1c7d0" stop-opacity="0.16"/><stop offset="0.09" stop-color="#c1c7d0" stop-opacity="0.36"/><stop offset="0.17" stop-color="#c1c7d0" stop-opacity="0.53"/><stop offset="0.25" stop-color="#c1c7d0" stop-opacity="0.68"/><stop offset="0.34" stop-color="#c1c7d0" stop-opacity="0.8"/><stop offset="0.44" stop-color="#c1c7d0" stop-opacity="0.89"/><stop offset="0.56" stop-color="#c1c7d0" stop-opacity="0.95"/><stop offset="0.71" stop-color="#c1c7d0" stop-opacity="0.99"/><stop offset="1" stop-color="#c1c7d0"/></linearGradient><linearGradient id="linear-gradient-2" x1="149.95" y1="82.6" x2="149.95" y2="25.37" gradientUnits="userSpaceOnUse"><stop offset="0" stop-color="#abf5d1" stop-opacity="0"/><stop offset="0.34" stop-color="#96f4ca" stop-opacity="0.25"/><stop offset="0.64" stop-color="#86f3c5" stop-opacity="0.44"/><stop offset="0.87" stop-color="#7df2c1" stop-opacity="0.56"/><stop offset="1" stop-color="#79f2c0" stop-opacity="0.6"/></linearGradient></defs><title>Devices-JIRA Laptop</title><g class="cls-3"><g id="Layer_2" data-name="Layer 2"><g id="Devices"><path class="cls-4" d="M65.7,209.35H239.29a6.71,6.71,0,0,0,6.71-6.71V84.8a7,7,0,0,0-7-7H64.86a7,7,0,0,0-7,7V201.51A7.83,7.83,0,0,0,65.7,209.35Z"/><path class="cls-4" d="M65.59,209.35H239.17a6.71,6.71,0,0,0,6.71-6.71V84.8a7,7,0,0,0-7-7H64.75a7,7,0,0,0-7,7V201.51A7.83,7.83,0,0,0,65.59,209.35Z"/><path class="cls-4" d="M65.48,209.35H239.06a6.71,6.71,0,0,0,6.71-6.71V84.8a7,7,0,0,0-7-7H64.63a7,7,0,0,0-7,7V201.51A7.83,7.83,0,0,0,65.48,209.35Z"/><path class="cls-4" d="M65.37,209.35H239a6.71,6.71,0,0,0,6.71-6.71V84.8a7,7,0,0,0-7-7H64.52a7,7,0,0,0-7,7V201.51A7.83,7.83,0,0,0,65.37,209.35Z"/><path class="cls-4" d="M65.26,209.35H238.84a6.71,6.71,0,0,0,6.71-6.71V84.8a7,7,0,0,0-7-7H64.41a7,7,0,0,0-7,7V201.51A7.83,7.83,0,0,0,65.26,209.35Z"/><path class="cls-4" d="M65.15,209.35H238.73a6.71,6.71,0,0,0,6.71-6.71V84.8a7,7,0,0,0-7-7H64.3a7,7,0,0,0-7,7V201.51A7.83,7.83,0,0,0,65.15,209.35Z"/><path class="cls-4" d="M65,209.35H238.62a6.71,6.71,0,0,0,6.71-6.71V84.8a7,7,0,0,0-7-7H64.19a7,7,0,0,0-7,7V201.51A7.83,7.83,0,0,0,65,209.35Z"/><path class="cls-4" d="M64.92,209.35H238.5a6.71,6.71,0,0,0,6.71-6.71V84.8a7,7,0,0,0-7-7H64.08a7,7,0,0,0-7,7V201.51A7.83,7.83,0,0,0,64.92,209.35Z"/><path class="cls-4" d="M64.81,209.35H238.39a6.71,6.71,0,0,0,6.71-6.71V84.8a7,7,0,0,0-7-7H64a7,7,0,0,0-7,7V201.51A7.83,7.83,0,0,0,64.81,209.35Z"/><path class="cls-4" d="M64.7,209.35H238.28a6.71,6.71,0,0,0,6.71-6.71V84.8a7,7,0,0,0-7-7H63.85a7,7,0,0,0-7,7V201.51A7.83,7.83,0,0,0,64.7,209.35Z"/><path class="cls-4" d="M64.59,209.35H238.17a6.71,6.71,0,0,0,6.71-6.71V84.8a7,7,0,0,0-7-7H63.74a7,7,0,0,0-7,7V201.51A7.83,7.83,0,0,0,64.59,209.35Z"/><path class="cls-4" d="M64.47,209.35H238.06a6.71,6.71,0,0,0,6.71-6.71V84.8a7,7,0,0,0-7-7H63.63a7,7,0,0,0-7,7V201.51A7.83,7.83,0,0,0,64.47,209.35Z"/><path class="cls-4" d="M64.36,209.35H237.94a6.71,6.71,0,0,0,6.71-6.71V84.8a7,7,0,0,0-7-7H63.52a7,7,0,0,0-7,7V201.51A7.83,7.83,0,0,0,64.36,209.35Z"/><path class="cls-4" d="M64.25,209.35H237.83a6.71,6.71,0,0,0,6.71-6.71V84.8a7,7,0,0,0-7-7H63.4a7,7,0,0,0-7,7V201.51A7.83,7.83,0,0,0,64.25,209.35Z"/><path class="cls-4" d="M64.14,209.35H237.72a6.71,6.71,0,0,0,6.71-6.71V84.8a7,7,0,0,0-7-7H63.29a7,7,0,0,0-7,7V201.51A7.83,7.83,0,0,0,64.14,209.35Z"/><path class="cls-4" d="M64,209.35H237.61a6.71,6.71,0,0,0,6.71-6.71V84.8a7,7,0,0,0-7-7H63.18a7,7,0,0,0-7,7V201.51A7.83,7.83,0,0,0,64,209.35Z"/><path class="cls-4" d="M63.91,209.35H237.5a6.71,6.71,0,0,0,6.71-6.71V84.8a7,7,0,0,0-7-7H63.07a7,7,0,0,0-7,7V201.51A7.83,7.83,0,0,0,63.91,209.35Z"/><path class="cls-4" d="M63.8,209.35H237.38a6.71,6.71,0,0,0,6.71-6.71V84.8a7,7,0,0,0-7-7H63a7,7,0,0,0-7,7V201.51A7.83,7.83,0,0,0,63.8,209.35Z"/><path class="cls-4" d="M63.69,209.35H237.27a6.71,6.71,0,0,0,6.71-6.71V84.8a7,7,0,0,0-7-7H62.84a7,7,0,0,0-7,7V201.51A7.83,7.83,0,0,0,63.69,209.35Z"/><path class="cls-4" d="M63.58,209.35H237.16a6.71,6.71,0,0,0,6.71-6.71V84.8a7,7,0,0,0-7-7H62.73a7,7,0,0,0-7,7V201.51A7.83,7.83,0,0,0,63.58,209.35Z"/><path class="cls-4" d="M63.47,209.35H237a6.71,6.71,0,0,0,6.71-6.71V84.8a7,7,0,0,0-7-7H62.62a7,7,0,0,0-7,7V201.51A7.83,7.83,0,0,0,63.47,209.35Z"/><path class="cls-4" d="M63.36,209.35H236.94a6.71,6.71,0,0,0,6.71-6.71V84.8a7,7,0,0,0-7-7H62.51a7,7,0,0,0-7,7V201.51A7.83,7.83,0,0,0,63.36,209.35Z"/><path class="cls-4" d="M63.24,209.35H236.82a6.71,6.71,0,0,0,6.71-6.71V84.8a7,7,0,0,0-7-7H62.4a7,7,0,0,0-7,7V201.51A7.83,7.83,0,0,0,63.24,209.35Z"/><path class="cls-4" d="M63.13,209.35H236.71a6.71,6.71,0,0,0,6.71-6.71V84.8a7,7,0,0,0-7-7H62.28a7,7,0,0,0-7,7V201.51A7.83,7.83,0,0,0,63.13,209.35Z"/><path class="cls-4" d="M63,209.35H236.6a6.71,6.71,0,0,0,6.71-6.71V84.8a7,7,0,0,0-7-7H62.17a7,7,0,0,0-7,7V201.51A7.83,7.83,0,0,0,63,209.35Z"/><path class="cls-4" d="M62.91,209.35H236.49a6.71,6.71,0,0,0,6.71-6.71V84.8a7,7,0,0,0-7-7H62.06a7,7,0,0,0-7,7V201.51A7.83,7.83,0,0,0,62.91,209.35Z"/><path class="cls-4" d="M62.8,209.35H236.38a6.71,6.71,0,0,0,6.71-6.71V84.8a7,7,0,0,0-7-7H61.95a7,7,0,0,0-7,7V201.51A7.83,7.83,0,0,0,62.8,209.35Z"/><path class="cls-4" d="M62.68,209.35H236.27a6.71,6.71,0,0,0,6.71-6.71V84.8a7,7,0,0,0-7-7H61.84a7,7,0,0,0-7,7V201.51A7.83,7.83,0,0,0,62.68,209.35Z"/><path class="cls-4" d="M62.57,209.35H236.15a6.71,6.71,0,0,0,6.71-6.71V84.8a7,7,0,0,0-7-7H61.73a7,7,0,0,0-7,7V201.51A7.83,7.83,0,0,0,62.57,209.35Z"/><path class="cls-4" d="M62.46,209.35H236a6.71,6.71,0,0,0,6.71-6.71V84.8a7,7,0,0,0-7-7H61.61a7,7,0,0,0-7,7V201.51A7.83,7.83,0,0,0,62.46,209.35Z"/><path class="cls-4" d="M62.35,209.35H235.93a6.71,6.71,0,0,0,6.71-6.71V84.8a7,7,0,0,0-7-7H61.5a7,7,0,0,0-7,7V201.51A7.83,7.83,0,0,0,62.35,209.35Z"/><path class="cls-4" d="M62.24,209.35H235.82a6.71,6.71,0,0,0,6.71-6.71V84.8a7,7,0,0,0-7-7H61.39a7,7,0,0,0-7,7V201.51A7.83,7.83,0,0,0,62.24,209.35Z"/><path class="cls-4" d="M62.12,209.35H235.71a6.71,6.71,0,0,0,6.71-6.71V84.8a7,7,0,0,0-7-7H61.28a7,7,0,0,0-7,7V201.51A7.83,7.83,0,0,0,62.12,209.35Z"/><path class="cls-4" d="M62,209.35H235.59a6.71,6.71,0,0,0,6.71-6.71V84.8a7,7,0,0,0-7-7H61.17a7,7,0,0,0-7,7V201.51A7.83,7.83,0,0,0,62,209.35Z"/><path class="cls-4" d="M61.9,209.35H235.48a6.71,6.71,0,0,0,6.71-6.71V84.8a7,7,0,0,0-7-7H61.05a7,7,0,0,0-7,7V201.51A7.83,7.83,0,0,0,61.9,209.35Z"/><path class="cls-4" d="M61.79,209.35H235.37a6.71,6.71,0,0,0,6.71-6.71V84.8a7,7,0,0,0-7-7H60.94a7,7,0,0,0-7,7V201.51A7.83,7.83,0,0,0,61.79,209.35Z"/><path class="cls-4" d="M61.68,209.35H235.26a6.71,6.71,0,0,0,6.71-6.71V84.8a7,7,0,0,0-7-7H60.83a7,7,0,0,0-7,7V201.51A7.83,7.83,0,0,0,61.68,209.35Z"/><path class="cls-4" d="M61.56,209.35H235.15a6.71,6.71,0,0,0,6.71-6.71V84.8a7,7,0,0,0-7-7H60.72a7,7,0,0,0-7,7V201.51A7.83,7.83,0,0,0,61.56,209.35Z"/><path class="cls-4" d="M61.45,209.35H235a6.71,6.71,0,0,0,6.71-6.71V84.8a7,7,0,0,0-7-7H60.61a7,7,0,0,0-7,7V201.51A7.83,7.83,0,0,0,61.45,209.35Z"/><path class="cls-4" d="M61.34,209.35H234.92a6.71,6.71,0,0,0,6.71-6.71V84.8a7,7,0,0,0-7-7H60.49a7,7,0,0,0-7,7V201.51A7.83,7.83,0,0,0,61.34,209.35Z"/><path class="cls-4" d="M61.23,209.35H234.81a6.71,6.71,0,0,0,6.71-6.71V84.8a7,7,0,0,0-7-7H60.38a7,7,0,0,0-7,7V201.51A7.83,7.83,0,0,0,61.23,209.35Z"/><path class="cls-4" d="M61.12,209.35H234.7a6.71,6.71,0,0,0,6.71-6.71V84.8a7,7,0,0,0-7-7H60.27a7,7,0,0,0-7,7V201.51A7.83,7.83,0,0,0,61.12,209.35Z"/><path class="cls-4" d="M61,209.35H234.59a6.71,6.71,0,0,0,6.71-6.71V84.8a7,7,0,0,0-7-7H60.16a7,7,0,0,0-7,7V201.51A7.83,7.83,0,0,0,61,209.35Z"/><path class="cls-4" d="M60.89,209.35H234.47a6.71,6.71,0,0,0,6.71-6.71V84.8a7,7,0,0,0-7-7H60a7,7,0,0,0-7,7V201.51A7.83,7.83,0,0,0,60.89,209.35Z"/><path class="cls-4" d="M60.78,209.35H234.36a6.71,6.71,0,0,0,6.71-6.71V84.8a7,7,0,0,0-7-7H59.94a7,7,0,0,0-7,7V201.51A7.83,7.83,0,0,0,60.78,209.35Z"/><path class="cls-4" d="M60.67,209.35H234.25a6.71,6.71,0,0,0,6.71-6.71V84.8a7,7,0,0,0-7-7H59.82a7,7,0,0,0-7,7V201.51A7.83,7.83,0,0,0,60.67,209.35Z"/><path class="cls-4" d="M60.56,209.35H234.14a6.71,6.71,0,0,0,6.71-6.71V84.8a7,7,0,0,0-7-7H59.71a7,7,0,0,0-7,7V201.51A7.83,7.83,0,0,0,60.56,209.35Z"/><path class="cls-4" d="M60.45,209.35H234a6.71,6.71,0,0,0,6.71-6.71V84.8a7,7,0,0,0-7-7H59.6a7,7,0,0,0-7,7V201.51A7.83,7.83,0,0,0,60.45,209.35Z"/><path class="cls-4" d="M60.33,209.35H233.92a6.71,6.71,0,0,0,6.71-6.71V84.8a7,7,0,0,0-7-7H59.49a7,7,0,0,0-7,7V201.51A7.83,7.83,0,0,0,60.33,209.35Z"/><path class="cls-4" d="M60.22,209.35H233.8a6.71,6.71,0,0,0,6.71-6.71V84.8a7,7,0,0,0-7-7H59.38a7,7,0,0,0-7,7V201.51A7.83,7.83,0,0,0,60.22,209.35Z"/><path class="cls-4" d="M60.11,209.35H233.69a6.71,6.71,0,0,0,6.71-6.71V84.8a7,7,0,0,0-7-7H59.26a7,7,0,0,0-7,7V201.51A7.83,7.83,0,0,0,60.11,209.35Z"/><path class="cls-5" d="M60.11,209.35H233.69a6.71,6.71,0,0,0,6.71-6.71V84.8a7,7,0,0,0-7-7H59.26a7,7,0,0,0-7,7V201.51A7.83,7.83,0,0,0,60.11,209.35Z"/><rect class="cls-6" x="63.47" y="89" width="165.75" height="101.32"/><path class="cls-4" d="M7.28,202.06H236.44a7.28,7.28,0,0,1,7.28,7.28v0a0,0,0,0,1,0,0H0a0,0,0,0,1,0,0v0A7.28,7.28,0,0,1,7.28,202.06Z" transform="translate(243.72 411.41) rotate(180)"/><rect id="_Rectangle_2" data-name="&lt;Rectangle&gt;" class="cls-1" x="95.68" y="56.79" width="101.32" height="165.75" transform="translate(286 -6.68) rotate(90)"/><g class="cls-7"><path id="_Compound_Clipping_Path_2" data-name="&lt;Compound Clipping Path&gt;" class="cls-2" d="M150.72,192.26H94.47a1.81,1.81,0,0,1-1.81-1.81V114a1.81,1.81,0,0,1,1.81-1.81h56.26a1.81,1.81,0,0,1,1.81,1.81v76.42A1.81,1.81,0,0,1,150.72,192.26Zm67-1.81V114a1.81,1.81,0,0,0-1.81-1.81H159.66a1.81,1.81,0,0,0-1.81,1.81v76.42a1.81,1.81,0,0,0,1.81,1.81h56.26A1.81,1.81,0,0,0,217.72,190.46Z"/><g class="cls-8"><rect class="cls-9" x="147.77" y="122.31" width="80.03" height="59.87" rx="0.88" ry="0.88" transform="translate(340.03 -35.54) rotate(90)"/><rect class="cls-10" x="160.64" y="115.03" width="54.28" height="22.44" rx="0.88" ry="0.88"/><rect class="cls-10" x="160.64" y="140.12" width="54.28" height="22.44" rx="0.88" ry="0.88"/><rect class="cls-11" x="121.96" y="158.65" width="54.28" height="22.44" rx="0.88" ry="0.88"/><rect class="cls-1" x="95.47" y="115.03" width="54.28" height="22.44" rx="1.81" ry="1.81"/></g><rect id="_Rectangle_3" data-name="&lt;Rectangle&gt;" class="cls-12" x="128.31" y="152.84" width="54.28" height="22.44" rx="0.88" ry="0.88"/><circle class="cls-2" cx="175.09" cy="167.69" r="3.92"/><circle class="cls-2" cx="142.04" cy="129.24" r="3.92"/><circle class="cls-13" cx="207.68" cy="129.24" r="3.92"/><circle class="cls-13" cx="207.68" cy="154.77" r="3.92"/><line class="cls-14" x1="99.34" y1="119.75" x2="135.17" y2="119.75"/><line class="cls-14" x1="99.34" y1="131.8" x2="112.13" y2="131.8"/><line class="cls-15" x1="132.78" y1="157.52" x2="168.61" y2="157.52"/><line class="cls-15" x1="132.78" y1="169.57" x2="145.57" y2="169.57"/><line class="cls-16" x1="164.67" y1="119.75" x2="200.5" y2="119.75"/><line class="cls-16" x1="164.67" y1="131.8" x2="177.46" y2="131.8"/><line class="cls-16" x1="164.67" y1="144.83" x2="200.5" y2="144.83"/></g><rect class="cls-4" x="63.47" y="89" width="165.75" height="14.52"/><rect class="cls-9" x="63.47" y="103.52" width="17.19" height="86.8"/><circle class="cls-17" cx="70.76" cy="96.26" r="3.03"/><circle class="cls-18" cx="80.64" cy="96.26" r="3.03"/><circle class="cls-9" cx="90.53" cy="96.26" r="3.03"/><rect class="cls-19" x="124.57" y="25.37" width="50.75" height="57.22"/><circle class="cls-20" cx="149.95" cy="25.37" r="25.37"/><polyline class="cls-21" points="136.22 24.98 146.49 34.38 164.31 19.28"/></g></g></g></svg>