<?xml version="1.0" encoding="utf-8"?>
<!-- Generator: Adobe Illustrator 21.0.2, SVG Export Plug-In . SVG Version: 6.00 Build 0)  -->
<svg version="1.1" id="Layer_1" xmlns="http://www.w3.org/2000/svg" xmlns:xlink="http://www.w3.org/1999/xlink" x="0px" y="0px"
	 viewBox="0 0 207.4 229.1" style="enable-background:new 0 0 207.4 229.1;" xml:space="preserve">
<style type="text/css">
	.st0{fill:#172B4D;}
	.st1{fill:#ECEEF1;}
	.st2{clip-path:url(#SVGID_2_);}
	.st3{fill:#0065FF;}
	.st4{clip-path:url(#SVGID_4_);}
	.st5{fill:#0052CC;}
	.st6{fill:none;stroke:#5E6C84;stroke-width:2;stroke-miterlimit:10;}
	.st7{fill:url(#SVGID_5_);}
	.st8{fill:none;stroke:#FFFFFF;stroke-width:2;stroke-miterlimit:10;}
	.st9{fill:none;stroke:#5E6C84;stroke-width:2;stroke-linecap:round;stroke-miterlimit:10;}
</style>
<title>Devices-Black iPhone Messages</title>
<g>
	<g>
		<g>
			<path id="_Rectangle_2" class="st0" d="M20,219.3V9.8C20,4.4,24.3,0,29.7,0h113c5.4,0,9.8,4.4,9.8,9.8v209.6
				c0,5.4-4.4,9.8-9.8,9.8h-113C24.3,229.1,20,224.7,20,219.3z"/>
			<path id="_Rectangle_3" class="st1" d="M27.8,192.2V16.1c0-1.5,1.2-2.7,2.7-2.7h111.4c1.5,0,2.7,1.2,2.7,2.7v176.1
				c0,1.5-1.2,2.7-2.7,2.7H30.6C29.1,194.9,27.8,193.7,27.8,192.2z"/>
			<g id="Layer_2">
				<defs>
					<path id="SVGID_1_" d="M27.8,192.2V16.1c0-1.5,1.2-2.7,2.7-2.7h111.4c1.5,0,2.7,1.2,2.7,2.7v176.1c0,1.5-1.2,2.7-2.7,2.7H30.6
						C29.1,194.9,27.8,193.7,27.8,192.2z"/>
				</defs>
				<clipPath id="SVGID_2_">
					<use xlink:href="#SVGID_1_"  style="overflow:visible;"/>
				</clipPath>
				<g id="Devices" class="st2">
					<path id="_Clipping_Path_2" class="st3" d="M26.8,103.6l46.7-7c17.2-2.6,33.3,9.2,35.9,26.4l2.1,14.1
						c2.6,17.2-9.3,33.3-26.5,35.9c0,0,0,0,0,0l-25.5,3.9c-4.5,0.7-8.3,3.8-9.8,8.1l-2.8,7.8l-5.6-7.4c-2.2-2.9-5.6-4.7-9.2-4.9
						c-14.9-0.8-27.3-12-29.5-26.8l-2.1-14.1C-2.2,122.2,9.6,106.2,26.8,103.6z"/>
					<g>
						<defs>
							<path id="SVGID_3_" d="M26.8,103.6l46.7-7c17.2-2.6,33.3,9.2,35.9,26.4l2.1,14.1c2.6,17.2-9.3,33.3-26.5,35.9c0,0,0,0,0,0
								l-25.5,3.9c-4.5,0.7-8.3,3.8-9.8,8.1l-2.8,7.8l-5.6-7.4c-2.2-2.9-5.6-4.7-9.2-4.9c-14.9-0.8-27.3-12-29.5-26.8l-2.1-14.1
								C-2.2,122.2,9.6,106.2,26.8,103.6z"/>
						</defs>
						<clipPath id="SVGID_4_">
							<use xlink:href="#SVGID_3_"  style="overflow:visible;"/>
						</clipPath>
						<g class="st4">
							<path class="st5" d="M125.6,35.8L59.5,34c-24.4-0.7-44.7,18.5-45.4,42.9l-0.6,20c-0.7,24.4,18.5,44.7,42.9,45.4l36.1,1
								c6.4,0.2,12.2,3.8,15.1,9.5l5.2,10.3l6.6-11.3c2.6-4.4,7-7.5,12-8.4c20.7-3.6,35.9-21.3,36.5-42.3l0.6-20
								C169.2,56.8,150,36.5,125.6,35.8C125.6,35.8,125.6,35.8,125.6,35.8z"/>
						</g>
					</g>
					<circle class="st6" cx="86.2" cy="212" r="8.9"/>
					
						<linearGradient id="SVGID_5_" gradientUnits="userSpaceOnUse" x1="36.8432" y1="140.9293" x2="207.3682" y2="140.9293" gradientTransform="matrix(1 0 0 -1 0 232)">
						<stop  offset="0" style="stop-color:#48CC8C"/>
						<stop  offset="0.27" style="stop-color:#4DD091"/>
						<stop  offset="0.6" style="stop-color:#5CDB9E"/>
						<stop  offset="0.96" style="stop-color:#75EDB4"/>
						<stop  offset="1" style="stop-color:#78F0B7"/>
					</linearGradient>
					<path class="st7" d="M168.5,31.2L98,17.6c-26-5-51.2,12-56.2,38l-4.1,21.3c-5,26,12,51.2,38,56.2l38.5,7.4
						c6.8,1.3,12.4,6.3,14.5,12.9l3.8,12l9-11c3.5-4.3,8.8-6.8,14.4-6.9c22.7-0.3,42.2-16.5,46.5-38.9l4.1-21.3
						C211.5,61.4,194.5,36.3,168.5,31.2z"/>
					
						<ellipse transform="matrix(0.1681 -0.9858 0.9858 0.1681 -6.2383 144.5456)" class="st8" cx="82.5" cy="76" rx="9.2" ry="9.2"/>
					
						<ellipse transform="matrix(0.1681 -0.9858 0.9858 0.1681 18.8474 187.1574)" class="st8" cx="120.3" cy="82.4" rx="9.2" ry="9.2"/>
					
						<ellipse transform="matrix(0.1681 -0.9858 0.9858 0.1681 43.9182 229.7483)" class="st8" cx="158.1" cy="88.9" rx="9.2" ry="9.2"/>
					<line class="st9" x1="74.4" y1="6.5" x2="97.9" y2="6.5"/>
				</g>
			</g>
		</g>
	</g>
</g>
</svg>
