<?xml version="1.0" encoding="utf-8"?>
<!-- Generator: Adobe Illustrator 21.0.2, SVG Export Plug-In . SVG Version: 6.00 Build 0)  -->
<svg version="1.1" id="Layer_1" xmlns="http://www.w3.org/2000/svg" xmlns:xlink="http://www.w3.org/1999/xlink" x="0px" y="0px"
	 viewBox="0 0 220 220" style="enable-background:new 0 0 220 220;" xml:space="preserve">
<style type="text/css">
	.st0{fill:url(#SVGID_1_);}
	.st1{fill:url(#SVGID_2_);}
	.st2{fill:url(#SVGID_3_);}
	.st3{fill:url(#SVGID_4_);}
	.st4{fill:url(#SVGID_5_);}
	.st5{fill:url(#SVGID_6_);}
	.st6{fill:url(#SVGID_7_);}
	.st7{opacity:0.4;}
	.st8{fill:none;stroke:#DE350B;stroke-width:2;stroke-miterlimit:10;}
	.st9{fill:none;stroke:#DE350B;stroke-width:2;stroke-miterlimit:10;stroke-dasharray:12.5049,7.8155;}
	.st10{fill:none;stroke:#DE350B;stroke-width:2;stroke-miterlimit:10;stroke-dasharray:11.8648,7.4155;}
	.st11{opacity:0.4;fill:#DE350B;}
	.st12{fill:#FAFBFC;}
</style>
<g>
	
		<linearGradient id="SVGID_1_" gradientUnits="userSpaceOnUse" x1="14.9468" y1="55.3337" x2="207.6545" y2="170.2171" gradientTransform="matrix(1 0 0 -1 0 222)">
		<stop  offset="0" style="stop-color:#FF5630"/>
		<stop  offset="1" style="stop-color:#FF7452"/>
	</linearGradient>
	<polygon class="st0" points="210,56.6 172.5,39.1 72.5,85.8 47.5,74.1 147.5,27.5 110,10 10,56.6 10,163.4 110,210 110,210 
		110,210 110,210 110,210 210,163.4 	"/>
	
		<linearGradient id="SVGID_2_" gradientUnits="userSpaceOnUse" x1="11.018" y1="59.4991" x2="110.3093" y2="118.6922" gradientTransform="matrix(1 0 0 -1 0 222)">
		<stop  offset="0" style="stop-color:#FF5630"/>
		<stop  offset="1" style="stop-color:#FF7452"/>
	</linearGradient>
	<polygon class="st1" points="110,103.3 10,56.6 10,163.4 110,210 	"/>
	
		<linearGradient id="SVGID_3_" gradientUnits="userSpaceOnUse" x1="85.4067" y1="117.5088" x2="198.6175" y2="184.9998" gradientTransform="matrix(1 0 0 -1 0 222)">
		<stop  offset="0" style="stop-color:#FF5630"/>
		<stop  offset="1" style="stop-color:#FF8F73"/>
	</linearGradient>
	<polygon class="st2" points="210,56.6 110,103.3 72.5,85.8 172.5,39.1 	"/>
	
		<linearGradient id="SVGID_4_" gradientUnits="userSpaceOnUse" x1="22.9061" y1="146.6585" x2="136.115" y2="214.1483" gradientTransform="matrix(1 0 0 -1 0 222)">
		<stop  offset="0" style="stop-color:#FF5630"/>
		<stop  offset="1" style="stop-color:#FF7452"/>
	</linearGradient>
	<polygon class="st3" points="110,10 10,56.6 47.5,74.1 147.5,27.5 	"/>
	
		<linearGradient id="SVGID_5_" gradientUnits="userSpaceOnUse" x1="111.0309" y1="91.1802" x2="210.3223" y2="150.3731" gradientTransform="matrix(1 0 0 1 0 12.9267)">
		<stop  offset="0" style="stop-color:#FF5630"/>
		<stop  offset="1" style="stop-color:#FF7452"/>
	</linearGradient>
	<polygon class="st4" points="210,163.4 110,210 110,103.3 210,56.6 	"/>
	
		<linearGradient id="SVGID_6_" gradientUnits="userSpaceOnUse" x1="66.753" y1="130.2981" x2="158.033" y2="172.6209" gradientTransform="matrix(1 0 0 -1 0 222)">
		<stop  offset="0" style="stop-color:#F4F5F7"/>
		<stop  offset="0.772" style="stop-color:#F4F5F7"/>
		<stop  offset="0.8009" style="stop-color:#F4F5F7"/>
		<stop  offset="1" style="stop-color:#FFFFFF"/>
	</linearGradient>
	<polygon class="st5" points="147.5,27.5 47.5,74.1 47.5,104.1 72.5,115.8 72.5,85.8 172.5,39.1 	"/>
	
		<linearGradient id="SVGID_7_" gradientUnits="userSpaceOnUse" x1="60" y1="162.45" x2="172.5" y2="162.45" gradientTransform="matrix(1 0 0 -1 0 222)">
		<stop  offset="0" style="stop-color:#FFFFFF"/>
		<stop  offset="1" style="stop-color:#F4F5F7"/>
	</linearGradient>
	<polygon class="st6" points="160,33.3 60,79.9 72.5,85.8 172.5,39.1 	"/>
	<g class="st7">
		<g>
			<polyline class="st8" points="203.4,149.4 203.4,157.4 196.1,160.8 			"/>
			<line class="st9" x1="189" y1="164.1" x2="174.2" y2="171"/>
			<polyline class="st8" points="170.6,172.7 163.4,176 163.4,168 			"/>
			<line class="st10" x1="163.4" y1="160.6" x2="163.4" y2="145.1"/>
			<polyline class="st8" points="163.4,141.3 163.4,133.3 170.6,130 			"/>
			<line class="st9" x1="177.7" y1="126.7" x2="192.6" y2="119.7"/>
			<polyline class="st8" points="196.1,118.1 203.4,114.7 203.4,122.7 			"/>
			<line class="st10" x1="203.4" y1="130.1" x2="203.4" y2="145.7"/>
		</g>
	</g>
	<polygon class="st11" points="38.5,158.2 16.6,148 16.6,150 38.5,160.2 	"/>
	<polygon class="st11" points="38.5,162.2 16.6,152 16.6,154.1 38.5,164.2 	"/>
	<polygon class="st11" points="27.5,161.2 16.6,156.1 16.6,158.1 27.5,163.2 	"/>
</g>
<polygon class="st12" points="72.5,85.8 47.5,74.1 47.5,104.1 72.5,115.8 "/>
</svg>
