<svg xmlns="http://www.w3.org/2000/svg" xmlns:xlink="http://www.w3.org/1999/xlink" viewBox="0 0 232.21 217.57"><defs><style>.cls-1{fill:#253858;}.cls-2{fill:#0065ff;}.cls-3{fill:#2684ff;}.cls-4{fill:url(#New_Gradient_Swatch_6);}.cls-5{fill:#ffc400;}</style><linearGradient id="New_Gradient_Swatch_6" x1="154.08" y1="509.4" x2="271.84" y2="509.4" gradientTransform="translate(101.98 -369.83) rotate(16.37)" gradientUnits="userSpaceOnUse"><stop offset="0" stop-color="#ffab00"/><stop offset="1" stop-color="#ffe380"/></linearGradient></defs><title>Objects-Puzzle Piece</title><g id="Layer_2" data-name="Layer 2"><g id="Objects"><path class="cls-1" d="M67,140.17a14.85,14.85,0,0,0,22.15,11.19,2.12,2.12,0,0,1,3.2,1.83v31.44h0A92.3,92.3,0,0,1,0,92.32H31.43a2.12,2.12,0,0,0,1.86-3.15,14.86,14.86,0,1,1,25.76,0,2.12,2.12,0,0,0,1.83,3.19H92.3v31.43a2.12,2.12,0,0,1-3.15,1.86A14.86,14.86,0,0,0,67,140.17Z"/><path class="cls-2" d="M117.66,47.85A14.85,14.85,0,0,1,95.5,59a2.12,2.12,0,0,0-3.19,1.83V92.31H60.88A2.12,2.12,0,0,1,59,89.12a14.86,14.86,0,1,0-25.76,0,2.12,2.12,0,0,1-1.86,3.15H0A92.3,92.3,0,0,1,92.3,0h0V31.44a2.12,2.12,0,0,0,3.15,1.86,14.86,14.86,0,0,1,22.21,14.55Z"/><path class="cls-3" d="M184.62,92.31H153.19a2.12,2.12,0,0,0-1.83,3.19,14.86,14.86,0,1,1-25.76,0,2.12,2.12,0,0,0-1.86-3.15H92.3V60.87A2.12,2.12,0,0,1,95.5,59a14.85,14.85,0,1,0,0-25.74,2.12,2.12,0,0,1-3.15-1.86V0h0a92.3,92.3,0,0,1,92.3,92.3Z"/><path class="cls-4" d="M232.21,151.25h0A92.3,92.3,0,0,1,117.63,213.8h0l8.86-30.16a2.12,2.12,0,0,0-2.55-2.66,14.86,14.86,0,1,1,7.3-24.7,2.12,2.12,0,0,0,3.55-.9l8.86-30.15,30.16,8.86a2.12,2.12,0,0,1,.9,3.55,14.86,14.86,0,1,0,24.7,7.3,2.12,2.12,0,0,1,2.66-2.55Z"/><path class="cls-5" d="M198,91l23.35-10.92a.57.57,0,0,1,.68.87l-14.9,18.46,4.27,3.44a.57.57,0,0,1-.12,1L188,114.73a.57.57,0,0,1-.68-.87l14.9-18.46-4.27-3.44A.57.57,0,0,1,198,91Z"/><path class="cls-5" d="M205.8,121l12.61,2.51a.25.25,0,0,1,0,.49L207,127l.7,2.66a.25.25,0,0,1-.29.31l-12.61-2.51a.25.25,0,0,1,0-.49l11.41-3-.7-2.66A.25.25,0,0,1,205.8,121Z"/></g></g></svg>